<?xml version="1.0" encoding="utf-8" standalone="no"?>
<!DOCTYPE svg PUBLIC "-//W3C//DTD SVG 1.1//EN"
  "http://www.w3.org/Graphics/SVG/1.1/DTD/svg11.dtd">
<!-- Created with matplotlib (http://matplotlib.org/) -->
<svg height="460pt" version="1.1" viewBox="0 0 781 460" width="781pt" xmlns="http://www.w3.org/2000/svg" xmlns:xlink="http://www.w3.org/1999/xlink">
 <defs>
  <style type="text/css">
*{stroke-linecap:butt;stroke-linejoin:round;stroke-miterlimit:100000;}
  </style>
 </defs>
 <g id="figure_1">
  <g id="patch_1">
   <path d="M 0 460.8 
L 781.2 460.8 
L 781.2 0 
L 0 0 
L 0 460.8 
z
" style="fill:none;"/>
  </g>
  <g id="axes_1">
   <g id="patch_2">
    <path d="M 0 460.8 
L 781.2 460.8 
L 781.2 -0 
L 0 -0 
L 0 460.8 
z
" style="fill:none;"/>
   </g>
   <g id="line2d_1">
    <path clip-path="url(#paa01ead5cd)" d="M 0 168.882289 
L 5.007692 169.914743 
L 10.015385 170.568121 
L 25.038462 169.2021 
L 30.046154 169.510791 
L 45.069231 168.79202 
L 50.076923 167.875325 
L 55.084615 168.242806 
L 60.092308 167.643365 
L 65.1 166.197452 
L 70.107692 165.231425 
L 75.115385 166.375929 
L 80.123077 166.301471 
L 85.130769 165.818902 
L 90.138462 165.79257 
L 95.146154 164.726896 
L 100.153846 165.82333 
L 105.161538 165.657984 
L 110.169231 164.7015 
L 115.176923 163.059693 
L 120.184615 162.303101 
L 125.192308 162.136981 
L 135.207692 160.461469 
L 140.215385 160.313033 
L 145.223077 159.072167 
L 150.230769 158.476117 
L 155.238462 157.647927 
L 160.246154 159.001247 
L 165.253846 159.681154 
L 170.261538 159.141857 
L 175.269231 158.947705 
L 180.276923 159.738186 
L 185.284615 159.583275 
L 190.292308 158.532583 
L 195.3 158.989389 
L 200.307692 163.161702 
L 205.315385 162.764142 
L 210.323077 164.123356 
L 215.330769 168.394425 
L 220.338462 169.293899 
L 225.346154 169.145739 
L 230.353846 169.835094 
L 235.361538 171.012834 
L 240.369231 172.059855 
L 245.376923 170.234611 
L 250.384615 169.345789 
L 255.392308 168.729167 
L 260.4 170.980717 
L 265.407692 171.932415 
L 270.415385 171.600464 
L 275.423077 170.311546 
L 280.430769 169.170149 
L 285.438462 169.567806 
L 290.446154 169.624353 
L 295.453846 168.669392 
L 300.461538 168.165781 
L 305.469231 167.856504 
L 310.476923 166.648719 
L 315.484615 167.50494 
L 320.492308 167.113627 
L 330.507692 166.83082 
L 335.515385 167.507714 
L 340.523077 167.029767 
L 345.530769 166.788595 
L 350.538462 165.491996 
L 355.546154 164.503704 
L 360.553846 166.8377 
L 365.561538 165.684245 
L 370.569231 166.641972 
L 375.576923 165.491996 
L 395.607692 164.161873 
L 410.630769 160.467437 
L 420.646154 161.86218 
L 425.653846 160.757569 
L 430.661538 160.411781 
L 435.669231 159.253048 
L 440.676923 156.5146 
L 445.684615 157.50141 
L 455.7 158.729581 
L 460.707692 157.704664 
L 465.715385 157.704664 
L 470.723077 156.990432 
L 475.730769 154.695568 
L 480.738462 154.304916 
L 485.746154 156.47413 
L 490.753846 155.605849 
L 495.761538 155.881471 
L 505.776923 155.984249 
L 510.784615 155.482792 
L 515.792308 155.426325 
L 520.8 154.742921 
L 525.807692 154.749567 
L 530.815385 154.526355 
L 535.823077 154.508888 
L 540.830769 154.786324 
L 545.838462 154.50412 
L 550.846154 153.452812 
L 555.853846 153.025106 
L 560.861538 151.026419 
L 605.930769 134.322932 
L 630.969231 123.409955 
L 656.007692 109.81398 
L 661.015385 107.053538 
L 666.023077 105.689119 
L 676.038462 100.732488 
L 681.046154 98.388124 
L 686.053846 94.686053 
L 696.069231 89.163977 
L 711.092308 81.293525 
L 716.1 79.545745 
L 731.123077 70.348124 
L 736.130769 67.517706 
L 776.192308 46.756933 
L 781.2 42.892131 
L 781.2 42.892131 
" style="fill:none;stroke:#000000;stroke-linecap:square;stroke-width:6.0;"/>
   </g>
   <g id="line2d_2">
    <path clip-path="url(#paa01ead5cd)" d="M 0 291.917711 
L 5.007692 290.885257 
L 10.015385 290.231879 
L 25.038462 291.5979 
L 30.046154 291.289209 
L 45.069231 292.00798 
L 50.076923 292.924675 
L 55.084615 292.557194 
L 60.092308 293.156635 
L 65.1 294.602548 
L 70.107692 295.568575 
L 75.115385 294.424071 
L 80.123077 294.498529 
L 85.130769 294.981098 
L 90.138462 295.00743 
L 95.146154 296.073104 
L 100.153846 294.97667 
L 105.161538 295.142016 
L 110.169231 296.0985 
L 115.176923 297.740307 
L 120.184615 298.496899 
L 125.192308 298.663019 
L 135.207692 300.338531 
L 140.215385 300.486967 
L 145.223077 301.727833 
L 150.230769 302.323883 
L 155.238462 303.152073 
L 160.246154 301.798753 
L 165.253846 301.118846 
L 170.261538 301.658143 
L 175.269231 301.852295 
L 180.276923 301.061814 
L 185.284615 301.216725 
L 190.292308 302.267417 
L 195.3 301.810611 
L 200.307692 297.638298 
L 205.315385 298.035858 
L 210.323077 296.676644 
L 215.330769 292.405575 
L 220.338462 291.506101 
L 225.346154 291.654261 
L 230.353846 290.964906 
L 235.361538 289.787166 
L 240.369231 288.740145 
L 245.376923 290.565389 
L 250.384615 291.454211 
L 255.392308 292.070833 
L 260.4 289.819283 
L 265.407692 288.867585 
L 270.415385 289.199536 
L 275.423077 290.488454 
L 280.430769 291.629851 
L 285.438462 291.232194 
L 290.446154 291.175647 
L 295.453846 292.130608 
L 300.461538 292.634219 
L 305.469231 292.943496 
L 310.476923 294.151281 
L 315.484615 293.29506 
L 320.492308 293.686373 
L 330.507692 293.96918 
L 335.515385 293.292286 
L 340.523077 293.770233 
L 345.530769 294.011405 
L 350.538462 295.308004 
L 355.546154 296.296296 
L 360.553846 293.9623 
L 365.561538 295.115755 
L 370.569231 294.158028 
L 375.576923 295.308004 
L 395.607692 296.638127 
L 410.630769 300.332563 
L 420.646154 298.93782 
L 425.653846 300.042431 
L 430.661538 300.388219 
L 435.669231 301.546952 
L 440.676923 304.2854 
L 445.684615 303.29859 
L 455.7 302.070419 
L 460.707692 303.095336 
L 465.715385 303.095336 
L 470.723077 303.809568 
L 475.730769 306.104432 
L 480.738462 306.495084 
L 485.746154 304.32587 
L 490.753846 305.194151 
L 495.761538 304.918529 
L 505.776923 304.815751 
L 510.784615 305.317208 
L 515.792308 305.373675 
L 520.8 306.057079 
L 525.807692 306.050433 
L 530.815385 306.273645 
L 535.823077 306.291112 
L 540.830769 306.013676 
L 545.838462 306.29588 
L 550.846154 307.347188 
L 555.853846 307.774894 
L 560.861538 309.773581 
L 605.930769 326.477068 
L 630.969231 337.390045 
L 656.007692 350.98602 
L 661.015385 353.746462 
L 666.023077 355.110881 
L 676.038462 360.067512 
L 681.046154 362.411876 
L 686.053846 366.113947 
L 696.069231 371.636023 
L 711.092308 379.506475 
L 716.1 381.254255 
L 731.123077 390.451876 
L 736.130769 393.282294 
L 776.192308 414.043067 
L 781.2 417.907869 
L 781.2 417.907869 
" style="fill:none;stroke:#000000;stroke-linecap:square;stroke-width:6.0;"/>
   </g>
   <g id="line2d_3">
    <path clip-path="url(#paa01ead5cd)" d="M 0 210.672607 
L 5.007692 216.317402 
L 10.015385 206.801908 
L 15.023077 182.988043 
L 20.030769 189.231233 
L 25.038462 194.469399 
L 30.046154 202.182817 
L 35.053846 205.465755 
L 40.061538 203.238986 
L 45.069231 186.430971 
L 50.076923 176.040973 
L 55.084615 185.407474 
L 60.092308 195.20139 
L 65.1 203.90888 
L 70.107692 214.222213 
L 75.115385 222.698459 
L 80.123077 226.455448 
L 85.130769 217.471902 
L 90.138462 199.90674 
L 95.146154 180.605472 
L 100.153846 190.242167 
L 105.161538 190.365732 
L 110.169231 197.692865 
L 115.176923 200.212892 
L 120.184615 204.640772 
L 125.192308 206.766662 
L 130.2 209.555508 
L 135.207692 202.35883 
L 140.215385 207.268185 
L 145.223077 209.983944 
L 150.230769 211.351769 
L 155.238462 221.353339 
L 160.246154 224.33978 
L 165.253846 222.123586 
L 170.261538 198.094303 
L 175.269231 176.463342 
L 180.276923 172.524396 
L 185.284615 187.251816 
L 190.292308 191.742889 
L 195.3 199.370929 
L 200.307692 184.15261 
L 205.315385 192.686785 
L 210.323077 211.355993 
L 215.330769 216.504994 
L 220.338462 211.890265 
L 225.346154 202.024518 
L 230.353846 201.018938 
L 235.361538 212.379393 
L 240.369231 218.54904 
L 250.384615 207.996546 
L 255.392308 203.311628 
L 265.407692 219.705087 
L 270.415385 231.44789 
L 275.423077 245.391303 
L 280.430769 244.455508 
L 285.438462 239.687032 
L 290.446154 223.342167 
L 295.453846 224.397844 
L 300.461538 226.81275 
L 305.469231 228.534108 
L 315.484615 249.859459 
L 320.492308 241.008944 
L 325.5 241.283885 
L 330.507692 225.068996 
L 335.515385 229.768071 
L 340.523077 232.047851 
L 345.530769 220.622541 
L 350.538462 206.922084 
L 355.546154 209.41151 
L 360.553846 218.246222 
L 365.561538 235.381838 
L 370.569231 246.387495 
L 375.576923 245.829148 
L 395.607692 284.301894 
L 410.630769 262.320526 
L 420.646154 262.305537 
L 425.653846 238.182777 
L 430.661538 222.722437 
L 435.669231 223.175848 
L 440.676923 227.42772 
L 445.684615 235.869531 
L 455.7 227.227204 
L 460.707692 219.12056 
L 465.715385 206.810974 
L 470.723077 216.481885 
L 475.730769 227.415756 
L 480.738462 237.890308 
L 485.746154 243.809208 
L 490.753846 241.901902 
L 495.761538 244.245817 
L 500.769231 249.744985 
L 505.776923 247.087783 
L 510.784615 239.525969 
L 515.792308 225.388424 
L 520.8 209.476617 
L 525.807692 213.06729 
L 530.815385 229.059271 
L 535.823077 218.458901 
L 540.830769 206.270154 
L 545.838462 175.681823 
L 550.846154 160.368482 
L 555.853846 162.219625 
L 560.861538 159.697174 
L 605.930769 140.90452 
L 630.969231 125.0468 
L 645.992308 124.877336 
L 656.007692 114.904135 
L 661.015385 119.361835 
L 666.023077 112.768636 
L 676.038462 103.084049 
L 681.046154 105.553398 
L 686.053846 104.094688 
L 696.069231 99.271236 
L 711.092308 92.532372 
L 716.1 90.560223 
L 731.123077 79.936218 
L 736.130769 76.067936 
L 776.192308 57.451055 
L 781.2 54.421635 
L 781.2 54.421635 
" style="fill:none;stroke:#ff2525;stroke-linecap:square;stroke-width:6.0;"/>
   </g>
   <g id="line2d_4">
    <path clip-path="url(#paa01ead5cd)" d="M 0 227.627048 
L 5.007692 239.78266 
L 10.015385 234.479636 
L 15.023077 210.670121 
L 20.030769 207.531464 
L 25.038462 211.190591 
L 30.046154 210.817549 
L 35.053846 214.416806 
L 40.061538 214.396841 
L 45.069231 204.559755 
L 50.076923 196.293031 
L 60.092308 221.867373 
L 65.1 220.193521 
L 70.107692 236.562753 
L 75.115385 249.823666 
L 80.123077 251.774683 
L 85.130769 245.131293 
L 90.138462 240.858613 
L 95.146154 230.270257 
L 100.153846 223.398368 
L 105.161538 221.213489 
L 110.169231 218.695696 
L 115.176923 223.077648 
L 120.184615 240.774536 
L 125.192308 254.552238 
L 130.2 240.632532 
L 135.207692 235.869912 
L 140.215385 228.56002 
L 145.223077 229.960825 
L 150.230769 236.150467 
L 155.238462 250.560679 
L 160.246154 236.695693 
L 165.253846 238.516012 
L 170.261538 225.070732 
L 175.269231 202.149833 
L 180.276923 204.050891 
L 185.284615 211.584451 
L 190.292308 225.48321 
L 195.3 217.376713 
L 200.307692 203.471499 
L 205.315385 226.564154 
L 210.323077 238.370707 
L 215.330769 234.954361 
L 220.338462 231.356839 
L 225.346154 226.934218 
L 230.353846 227.263368 
L 235.361538 231.614257 
L 240.369231 216.9904 
L 245.376923 238.866711 
L 250.384615 233.113562 
L 255.392308 234.05797 
L 260.4 238.13214 
L 265.407692 248.86431 
L 270.415385 270.480913 
L 275.423077 263.908563 
L 280.430769 253.588436 
L 285.438462 254.659295 
L 290.446154 248.645862 
L 295.453846 240.402002 
L 300.461538 241.516018 
L 305.469231 253.15841 
L 310.476923 258.716626 
L 315.484615 278.558049 
L 320.492308 262.816976 
L 325.5 252.749755 
L 330.507692 243.201805 
L 335.515385 247.947129 
L 340.523077 241.567703 
L 345.530769 235.877486 
L 350.538462 223.103777 
L 355.546154 222.530631 
L 360.553846 232.983476 
L 365.561538 250.351417 
L 370.569231 263.579798 
L 375.576923 258.695869 
L 395.607692 287.749944 
L 410.630769 275.223194 
L 420.646154 287.848146 
L 425.653846 264.617379 
L 430.661538 249.248974 
L 435.669231 242.659167 
L 440.676923 245.85164 
L 445.684615 251.423509 
L 455.7 249.665964 
L 460.707692 234.918653 
L 465.715385 231.107028 
L 470.723077 235.916326 
L 475.730769 247.976904 
L 480.738462 264.118703 
L 485.746154 271.776032 
L 490.753846 282.040923 
L 495.761538 273.589414 
L 500.769231 250.328962 
L 505.776923 280.978762 
L 510.784615 273.242245 
L 515.792308 259.11955 
L 520.8 247.522482 
L 525.807692 239.503519 
L 530.815385 243.993558 
L 535.823077 259.885026 
L 540.830769 257.443718 
L 545.838462 256.094421 
L 550.846154 259.489983 
L 560.861538 295.980333 
L 605.930769 319.246214 
L 630.969231 328.98608 
L 645.992308 337.010472 
L 656.007692 344.81089 
L 661.015385 346.113935 
L 666.023077 348.318722 
L 676.038462 349.432009 
L 681.046154 350.168142 
L 686.053846 354.397863 
L 696.069231 366.278848 
L 711.092308 376.050783 
L 716.1 377.888338 
L 731.123077 389.592333 
L 736.130769 392.796868 
L 776.192308 406.609648 
L 781.2 407.315362 
L 781.2 407.315362 
" style="fill:none;stroke:#ff2525;stroke-linecap:square;stroke-width:6.0;"/>
   </g>
   <g id="patch_3">
    <path d="M 0 460.8 
L 781.2 460.8 
" style="fill:none;"/>
   </g>
   <g id="patch_4">
    <path d="M 781.2 460.8 
L 781.2 -0 
" style="fill:none;"/>
   </g>
   <g id="patch_5">
    <path d="M 0 460.8 
L 0 -0 
" style="fill:none;"/>
   </g>
   <g id="patch_6">
    <path d="M 0 -0 
L 781.2 -0 
" style="fill:none;"/>
   </g>
   <g id="matplotlib.axis_1"/>
   <g id="matplotlib.axis_2"/>
  </g>
 </g>
 <defs>
  <clipPath id="paa01ead5cd">
   <rect height="460.8" width="781.2" x="0.0" y="-5.68434188608e-14"/>
  </clipPath>
 </defs>
</svg>
