<?xml version="1.0" encoding="utf-8" standalone="no"?>
<!DOCTYPE svg PUBLIC "-//W3C//DTD SVG 1.1//EN"
  "http://www.w3.org/Graphics/SVG/1.1/DTD/svg11.dtd">
<!-- Created with matplotlib (http://matplotlib.org/) -->
<svg height="460pt" version="1.1" viewBox="0 0 781 460" width="781pt" xmlns="http://www.w3.org/2000/svg" xmlns:xlink="http://www.w3.org/1999/xlink">
 <defs>
  <style type="text/css">
*{stroke-linecap:butt;stroke-linejoin:round;stroke-miterlimit:100000;}
  </style>
 </defs>
 <g id="figure_1">
  <g id="patch_1">
   <path d="M 0 460.8 
L 781.2 460.8 
L 781.2 0 
L 0 0 
L 0 460.8 
z
" style="fill:none;"/>
  </g>
  <g id="axes_1">
   <g id="patch_2">
    <path d="M 0 460.8 
L 781.2 460.8 
L 781.2 -0 
L 0 -0 
L 0 460.8 
z
" style="fill:none;"/>
   </g>
   <g id="line2d_1">
    <path clip-path="url(#p028fabb651)" d="M 0 174.892565 
L 3.268619 172.239972 
L 6.537238 170.719585 
L 9.805858 170.025393 
L 13.074477 169.217125 
L 16.343096 166.56886 
L 19.611715 164.871906 
L 22.880335 163.674886 
L 26.148954 162.930699 
L 29.417573 161.535605 
L 35.954812 160.596982 
L 39.223431 159.09949 
L 42.49205 158.090163 
L 45.760669 158.255412 
L 49.029289 155.777174 
L 52.297908 155.988675 
L 55.566527 153.350882 
L 58.835146 152.278576 
L 62.103766 152.529962 
L 65.372385 152.40454 
L 71.909623 151.328472 
L 78.446862 148.87643 
L 81.715481 147.378592 
L 88.25272 146.52062 
L 94.789958 146.439028 
L 114.401674 143.504847 
L 117.670293 142.57177 
L 120.938912 141.808624 
L 124.207531 140.761653 
L 127.476151 140.642091 
L 130.74477 140.007991 
L 134.013389 140.260336 
L 137.282008 140.756111 
L 140.550628 140.498803 
L 143.819247 140.411445 
L 147.087866 139.658462 
L 153.625105 136.144592 
L 156.893724 136.646137 
L 160.162343 137.30528 
L 169.968201 136.303625 
L 176.505439 138.912724 
L 183.042678 134.942591 
L 186.311297 134.355452 
L 189.579916 132.834251 
L 192.848536 132.699392 
L 196.117155 131.614502 
L 199.385774 130.03409 
L 205.923013 129.733033 
L 254.952301 135.878344 
L 258.220921 135.981048 
L 261.48954 136.2955 
L 264.758159 135.310942 
L 268.026778 135.730567 
L 271.295397 135.836139 
L 274.564017 135.330647 
L 277.832636 134.96508 
L 281.101255 134.395703 
L 284.369874 134.426582 
L 287.638494 134.201688 
L 290.907113 133.489297 
L 294.175732 133.161173 
L 297.444351 132.448544 
L 300.712971 132.274577 
L 303.98159 134.484538 
L 307.250209 135.416691 
L 310.518828 135.942647 
L 313.787448 134.846781 
L 317.056067 133.362083 
L 320.324686 133.624959 
L 323.593305 134.047972 
L 326.861925 133.924195 
L 339.936402 132.173803 
L 343.205021 132.292981 
L 346.47364 131.337908 
L 349.742259 130.779838 
L 353.010879 129.765482 
L 359.548117 128.6689 
L 362.816736 132.846141 
L 366.085356 133.035728 
L 382.428452 129.563301 
L 385.697071 127.804391 
L 388.96569 126.941758 
L 392.23431 126.889383 
L 395.502929 128.579003 
L 398.771548 127.485497 
L 402.040167 127.752884 
L 408.577406 126.670322 
L 411.846025 125.142928 
L 418.383264 125.984626 
L 421.651883 126.102902 
L 424.920502 129.115454 
L 428.189121 130.366428 
L 441.263598 129.576144 
L 447.800837 127.03487 
L 451.069456 125.95538 
L 454.338075 126.250466 
L 457.606695 125.488356 
L 464.143933 128.247543 
L 467.412552 127.887814 
L 477.21841 131.454929 
L 480.487029 131.629979 
L 483.755649 130.87274 
L 487.024268 131.516051 
L 490.292887 131.480767 
L 493.561506 130.123308 
L 496.830126 129.397443 
L 500.098745 129.886282 
L 503.367364 128.053842 
L 509.904603 125.879655 
L 516.441841 125.20025 
L 526.247699 125.893073 
L 529.516318 126.445836 
L 536.053556 124.499964 
L 539.322176 125.026275 
L 542.590795 125.237371 
L 549.128033 124.246496 
L 552.396653 124.242262 
L 555.665272 121.870555 
L 558.933891 121.941812 
L 562.20251 121.213889 
L 568.739749 118.464115 
L 585.082845 111.888362 
L 588.351464 111.344012 
L 647.186611 75.086739 
L 660.261088 69.665437 
L 676.604184 56.325063 
L 683.141423 52.394821 
L 699.484519 40.858833 
L 702.753138 38.802236 
L 706.021757 37.302318 
L 709.290377 35.618803 
L 735.439331 15.823037 
L 738.70795 13.982885 
L 745.245188 9.15422 
L 748.513808 6.34135 
L 751.782427 6.13439 
L 755.051046 3.1242 
L 758.319665 0.304971 
L 761.588285 -0.304589 
L 762.473048 -1 
L 762.473048 -1 
" style="fill:none;stroke:#000000;stroke-linecap:square;stroke-width:6.0;"/>
   </g>
   <g id="line2d_2">
    <path clip-path="url(#p028fabb651)" d="M 0 285.907435 
L 3.268619 288.560028 
L 6.537238 290.080415 
L 9.805858 290.774607 
L 13.074477 291.582875 
L 16.343096 294.23114 
L 19.611715 295.928094 
L 22.880335 297.125114 
L 26.148954 297.869301 
L 29.417573 299.264395 
L 35.954812 300.203018 
L 39.223431 301.70051 
L 42.49205 302.709837 
L 45.760669 302.544588 
L 49.029289 305.022826 
L 52.297908 304.811325 
L 55.566527 307.449118 
L 58.835146 308.521424 
L 62.103766 308.270038 
L 65.372385 308.39546 
L 71.909623 309.471528 
L 78.446862 311.92357 
L 81.715481 313.421408 
L 88.25272 314.27938 
L 94.789958 314.360972 
L 114.401674 317.295153 
L 117.670293 318.22823 
L 120.938912 318.991376 
L 124.207531 320.038347 
L 127.476151 320.157909 
L 130.74477 320.792009 
L 134.013389 320.539664 
L 137.282008 320.043889 
L 140.550628 320.301197 
L 143.819247 320.388555 
L 147.087866 321.141538 
L 153.625105 324.655408 
L 156.893724 324.153863 
L 160.162343 323.49472 
L 169.968201 324.496375 
L 176.505439 321.887276 
L 183.042678 325.857409 
L 186.311297 326.444548 
L 189.579916 327.965749 
L 192.848536 328.100608 
L 196.117155 329.185498 
L 199.385774 330.76591 
L 205.923013 331.066967 
L 254.952301 324.921656 
L 258.220921 324.818952 
L 261.48954 324.5045 
L 264.758159 325.489058 
L 268.026778 325.069433 
L 271.295397 324.963861 
L 274.564017 325.469353 
L 277.832636 325.83492 
L 281.101255 326.404297 
L 284.369874 326.373418 
L 287.638494 326.598312 
L 290.907113 327.310703 
L 294.175732 327.638827 
L 297.444351 328.351456 
L 300.712971 328.525423 
L 303.98159 326.315462 
L 307.250209 325.383309 
L 310.518828 324.857353 
L 313.787448 325.953219 
L 317.056067 327.437917 
L 320.324686 327.175041 
L 323.593305 326.752028 
L 326.861925 326.875805 
L 339.936402 328.626197 
L 343.205021 328.507019 
L 346.47364 329.462092 
L 349.742259 330.020162 
L 353.010879 331.034518 
L 359.548117 332.1311 
L 362.816736 327.953859 
L 366.085356 327.764272 
L 382.428452 331.236699 
L 385.697071 332.995609 
L 388.96569 333.858242 
L 392.23431 333.910617 
L 395.502929 332.220997 
L 398.771548 333.314503 
L 402.040167 333.047116 
L 408.577406 334.129678 
L 411.846025 335.657072 
L 418.383264 334.815374 
L 421.651883 334.697098 
L 424.920502 331.684546 
L 428.189121 330.433572 
L 441.263598 331.223856 
L 447.800837 333.76513 
L 451.069456 334.84462 
L 454.338075 334.549534 
L 457.606695 335.311644 
L 464.143933 332.552457 
L 467.412552 332.912186 
L 477.21841 329.345071 
L 480.487029 329.170021 
L 483.755649 329.92726 
L 487.024268 329.283949 
L 490.292887 329.319233 
L 493.561506 330.676692 
L 496.830126 331.402557 
L 500.098745 330.913718 
L 503.367364 332.746158 
L 509.904603 334.920345 
L 516.441841 335.59975 
L 526.247699 334.906927 
L 529.516318 334.354164 
L 536.053556 336.300036 
L 539.322176 335.773725 
L 542.590795 335.562629 
L 549.128033 336.553504 
L 552.396653 336.557738 
L 555.665272 338.929445 
L 558.933891 338.858188 
L 562.20251 339.586111 
L 568.739749 342.335885 
L 585.082845 348.911638 
L 588.351464 349.455988 
L 647.186611 385.713261 
L 660.261088 391.134563 
L 676.604184 404.474937 
L 683.141423 408.405179 
L 699.484519 419.941167 
L 702.753138 421.997764 
L 706.021757 423.497682 
L 709.290377 425.181197 
L 735.439331 444.976963 
L 738.70795 446.817115 
L 745.245188 451.64578 
L 748.513808 454.45865 
L 751.782427 454.66561 
L 755.051046 457.6758 
L 758.319665 460.495029 
L 761.588285 461.104589 
L 762.473048 461.8 
L 762.473048 461.8 
" style="fill:none;stroke:#000000;stroke-linecap:square;stroke-width:6.0;"/>
   </g>
   <g id="line2d_3">
    <path clip-path="url(#p028fabb651)" d="M 0 246.946796 
L 3.268619 251.697215 
L 6.537238 254.025708 
L 9.805858 252.120113 
L 13.074477 261.999321 
L 16.343096 255.417991 
L 19.611715 243.146371 
L 22.880335 229.893541 
L 26.148954 232.170104 
L 29.417573 220.442244 
L 32.686192 224.354073 
L 35.954812 205.61735 
L 39.223431 203.449094 
L 42.49205 196.659727 
L 45.760669 211.060889 
L 49.029289 213.957263 
L 52.297908 212.124914 
L 55.566527 209.270987 
L 58.835146 225.059284 
L 62.103766 226.993112 
L 65.372385 222.550197 
L 71.909623 235.290747 
L 78.446862 213.395279 
L 81.715481 210.2711 
L 88.25272 204.599672 
L 94.789958 223.934522 
L 114.401674 244.204981 
L 117.670293 243.62597 
L 120.938912 246.902658 
L 124.207531 264.529318 
L 127.476151 273.080061 
L 130.74477 275.117001 
L 134.013389 257.118094 
L 137.282008 236.026126 
L 140.550628 223.517356 
L 143.819247 206.717366 
L 147.087866 212.876493 
L 150.356485 218.210956 
L 153.625105 230.091058 
L 156.893724 243.482396 
L 160.162343 245.880265 
L 169.968201 279.041779 
L 176.505439 278.58744 
L 179.774059 277.875322 
L 183.042678 265.788779 
L 186.311297 246.383646 
L 189.579916 241.118938 
L 192.848536 237.601702 
L 196.117155 235.826196 
L 199.385774 232.788815 
L 202.654393 227.816149 
L 205.923013 207.64733 
L 254.952301 254.431305 
L 258.220921 249.587478 
L 261.48954 255.83982 
L 264.758159 257.709357 
L 268.026778 261.096846 
L 271.295397 258.258492 
L 274.564017 242.085197 
L 277.832636 242.929668 
L 281.101255 243.324517 
L 284.369874 245.20697 
L 290.907113 208.154336 
L 294.175732 192.712912 
L 297.444351 172.000531 
L 300.712971 176.777786 
L 303.98159 183.271497 
L 307.250209 182.149 
L 310.518828 173.951912 
L 313.787448 162.694497 
L 317.056067 149.830397 
L 320.324686 151.460565 
L 323.593305 144.038841 
L 326.861925 148.331625 
L 339.936402 147.826404 
L 343.205021 157.357083 
L 346.47364 162.56931 
L 349.742259 157.386228 
L 353.010879 159.679745 
L 359.548117 170.668076 
L 362.816736 177.701431 
L 366.085356 188.698873 
L 382.428452 155.410834 
L 385.697071 163.838722 
L 388.96569 160.31711 
L 392.23431 159.550264 
L 395.502929 154.64377 
L 398.771548 148.506209 
L 402.040167 157.572532 
L 408.577406 163.065897 
L 411.846025 160.240554 
L 418.383264 174.502875 
L 421.651883 178.179636 
L 424.920502 179.734319 
L 428.189121 177.782234 
L 441.263598 177.356215 
L 444.532218 182.460306 
L 447.800837 182.311969 
L 451.069456 174.306522 
L 454.338075 160.483662 
L 457.606695 153.430353 
L 464.143933 143.067475 
L 467.412552 144.394031 
L 477.21841 157.037871 
L 480.487029 150.952912 
L 483.755649 151.877124 
L 487.024268 160.731236 
L 490.292887 170.536988 
L 493.561506 169.113313 
L 496.830126 174.811389 
L 500.098745 159.735295 
L 503.367364 143.911065 
L 506.635983 142.03246 
L 509.904603 149.830702 
L 516.441841 143.596566 
L 519.71046 139.624125 
L 522.979079 147.118647 
L 526.247699 151.083056 
L 529.516318 146.471652 
L 536.053556 146.036979 
L 539.322176 135.251207 
L 542.590795 137.149669 
L 545.859414 135.352658 
L 549.128033 131.209682 
L 552.396653 136.318969 
L 555.665272 134.135856 
L 558.933891 132.86726 
L 562.20251 132.441685 
L 565.47113 134.306423 
L 585.082845 123.841147 
L 588.351464 126.390293 
L 647.186611 82.373903 
L 660.261088 70.195571 
L 676.604184 64.09483 
L 683.141423 56.987288 
L 699.484519 42.956735 
L 702.753138 42.050122 
L 706.021757 39.386603 
L 709.290377 37.795901 
L 735.439331 19.611232 
L 738.70795 15.331229 
L 741.976569 14.235136 
L 745.245188 11.045026 
L 748.513808 10.161233 
L 751.782427 8.34047 
L 755.051046 10.128143 
L 758.319665 8.019557 
L 761.588285 4.30594 
L 764.856904 0.182124 
L 768.125523 -0.582473 
L 768.509872 -1 
L 768.509872 -1 
" style="fill:none;stroke:#ff2525;stroke-linecap:square;stroke-width:6.0;"/>
   </g>
   <g id="line2d_4">
    <path clip-path="url(#p028fabb651)" d="M 0 259.611704 
L 3.268619 260.591959 
L 6.537238 266.167786 
L 9.805858 264.340793 
L 13.074477 267.10966 
L 16.343096 262.845409 
L 19.611715 262.721333 
L 22.880335 254.621782 
L 26.148954 251.605876 
L 29.417573 249.495543 
L 32.686192 241.647441 
L 35.954812 235.36078 
L 39.223431 238.864162 
L 42.49205 226.059508 
L 45.760669 224.864561 
L 49.029289 221.971583 
L 52.297908 223.871204 
L 55.566527 224.630161 
L 58.835146 243.514271 
L 62.103766 254.994522 
L 65.372385 249.152697 
L 71.909623 245.956788 
L 78.446862 220.957916 
L 81.715481 217.105761 
L 88.25272 213.253277 
L 94.789958 226.965968 
L 114.401674 257.610593 
L 117.670293 252.753027 
L 120.938912 254.437241 
L 124.207531 271.800021 
L 127.476151 287.297442 
L 130.74477 286.008154 
L 134.013389 280.228811 
L 137.282008 261.59813 
L 140.550628 246.224576 
L 143.819247 228.23467 
L 147.087866 228.314121 
L 150.356485 232.128539 
L 153.625105 245.001079 
L 156.893724 262.102806 
L 160.162343 254.431632 
L 169.968201 294.401072 
L 176.505439 284.401041 
L 179.774059 288.036869 
L 183.042678 285.114345 
L 189.579916 268.62134 
L 192.848536 264.009234 
L 196.117155 261.732847 
L 199.385774 253.114158 
L 202.654393 248.648983 
L 205.923013 239.980868 
L 254.952301 290.56231 
L 258.220921 291.075551 
L 261.48954 285.93427 
L 268.026778 281.622664 
L 271.295397 271.232322 
L 274.564017 264.386345 
L 277.832636 262.15053 
L 281.101255 261.181273 
L 284.369874 267.496782 
L 287.638494 253.107281 
L 290.907113 240.296855 
L 294.175732 230.703745 
L 297.444351 212.589431 
L 300.712971 208.19488 
L 303.98159 212.410467 
L 307.250209 207.710393 
L 310.518828 205.643955 
L 313.787448 195.770895 
L 317.056067 182.90647 
L 320.324686 177.635131 
L 323.593305 168.32391 
L 326.861925 162.399078 
L 339.936402 159.027218 
L 343.205021 176.200152 
L 346.47364 180.781825 
L 349.742259 179.519559 
L 353.010879 172.298953 
L 359.548117 177.795566 
L 362.816736 190.001604 
L 366.085356 205.758877 
L 382.428452 173.133663 
L 385.697071 174.783241 
L 388.96569 174.122764 
L 392.23431 186.758044 
L 395.502929 198.043466 
L 398.771548 187.933463 
L 402.040167 186.373112 
L 408.577406 180.296698 
L 411.846025 177.098807 
L 418.383264 200.569388 
L 421.651883 207.418358 
L 424.920502 193.151044 
L 428.189121 184.888846 
L 441.263598 191.889348 
L 444.532218 200.657209 
L 447.800837 198.896217 
L 451.069456 195.914693 
L 454.338075 185.896546 
L 457.606695 178.015686 
L 464.143933 160.428348 
L 467.412552 157.738143 
L 477.21841 174.574977 
L 480.487029 167.92306 
L 483.755649 167.792305 
L 487.024268 183.534047 
L 490.292887 192.78651 
L 493.561506 188.791436 
L 496.830126 184.398206 
L 500.098745 178.687454 
L 503.367364 167.79805 
L 506.635983 154.840656 
L 509.904603 163.340086 
L 516.441841 151.985368 
L 519.71046 163.299133 
L 522.979079 177.631761 
L 526.247699 183.08282 
L 529.516318 176.913835 
L 536.053556 168.897223 
L 539.322176 176.374734 
L 542.590795 185.726115 
L 549.128033 209.969748 
L 552.396653 225.033773 
L 555.665272 235.96635 
L 558.933891 240.532504 
L 562.20251 250.984243 
L 565.47113 266.145601 
L 585.082845 320.968198 
L 588.351464 326.556962 
L 647.186611 379.852718 
L 660.261088 382.770521 
L 676.604184 397.818569 
L 683.141423 400.279904 
L 699.484519 412.071618 
L 702.753138 393.557344 
L 706.021757 415.269886 
L 709.290377 417.235008 
L 735.439331 427.811169 
L 738.70795 432.949663 
L 741.976569 429.841318 
L 745.245188 430.63632 
L 748.513808 432.828442 
L 751.782427 440.501688 
L 755.051046 441.341755 
L 758.319665 449.161254 
L 761.588285 450.924537 
L 764.856904 452.442487 
L 768.125523 461.437826 
L 768.516546 461.8 
L 768.516546 461.8 
" style="fill:none;stroke:#ff2525;stroke-linecap:square;stroke-width:6.0;"/>
   </g>
   <g id="patch_3">
    <path d="M 0 460.8 
L 781.2 460.8 
" style="fill:none;"/>
   </g>
   <g id="patch_4">
    <path d="M 781.2 460.8 
L 781.2 -0 
" style="fill:none;"/>
   </g>
   <g id="patch_5">
    <path d="M 0 460.8 
L 0 -0 
" style="fill:none;"/>
   </g>
   <g id="patch_6">
    <path d="M 0 -0 
L 781.2 -0 
" style="fill:none;"/>
   </g>
   <g id="matplotlib.axis_1"/>
   <g id="matplotlib.axis_2"/>
  </g>
 </g>
 <defs>
  <clipPath id="p028fabb651">
   <rect height="460.8" width="781.2" x="0.0" y="-5.68434188608e-14"/>
  </clipPath>
 </defs>
</svg>
